<mxfile host="Electron" modified="2024-02-26T17:01:58.080Z" agent="Mozilla/5.0 (Windows NT 10.0; Win64; x64) AppleWebKit/537.36 (KHTML, like Gecko) draw.io/23.1.5 Chrome/120.0.6099.109 Electron/28.1.0 Safari/537.36" etag="V2avBUXydCt8GzCTBDs4" version="23.1.5" type="device" pages="2">
  <diagram name="Documento" id="pc3sAR5_hVTaw8djOiAw">
    <mxGraphModel dx="1120" dy="532" grid="1" gridSize="10" guides="1" tooltips="1" connect="1" arrows="1" fold="1" page="1" pageScale="1" pageWidth="827" pageHeight="1169" math="0" shadow="0">
      <root>
        <mxCell id="0" />
        <mxCell id="1" parent="0" />
        <mxCell id="wrKVuI8NlJ4pwbdhKwaR-1" value="&lt;b&gt;DocumentoRG&lt;/b&gt;" style="swimlane;fontStyle=0;childLayout=stackLayout;horizontal=1;startSize=26;fillColor=none;horizontalStack=0;resizeParent=1;resizeParentMax=0;resizeLast=0;collapsible=1;marginBottom=0;whiteSpace=wrap;html=1;" parent="1" vertex="1">
          <mxGeometry x="440" y="20" width="140" height="130" as="geometry" />
        </mxCell>
        <mxCell id="wrKVuI8NlJ4pwbdhKwaR-2" value="número de identificação" style="text;strokeColor=none;fillColor=none;align=left;verticalAlign=top;spacingLeft=4;spacingRight=4;overflow=hidden;rotatable=0;points=[[0,0.5],[1,0.5]];portConstraint=eastwest;whiteSpace=wrap;html=1;" parent="wrKVuI8NlJ4pwbdhKwaR-1" vertex="1">
          <mxGeometry y="26" width="140" height="26" as="geometry" />
        </mxCell>
        <mxCell id="wrKVuI8NlJ4pwbdhKwaR-10" value="filiação" style="text;strokeColor=none;fillColor=none;align=left;verticalAlign=top;spacingLeft=4;spacingRight=4;overflow=hidden;rotatable=0;points=[[0,0.5],[1,0.5]];portConstraint=eastwest;whiteSpace=wrap;html=1;" parent="wrKVuI8NlJ4pwbdhKwaR-1" vertex="1">
          <mxGeometry y="52" width="140" height="26" as="geometry" />
        </mxCell>
        <mxCell id="wrKVuI8NlJ4pwbdhKwaR-3" value="data de expiração" style="text;strokeColor=none;fillColor=none;align=left;verticalAlign=top;spacingLeft=4;spacingRight=4;overflow=hidden;rotatable=0;points=[[0,0.5],[1,0.5]];portConstraint=eastwest;whiteSpace=wrap;html=1;" parent="wrKVuI8NlJ4pwbdhKwaR-1" vertex="1">
          <mxGeometry y="78" width="140" height="26" as="geometry" />
        </mxCell>
        <mxCell id="wrKVuI8NlJ4pwbdhKwaR-4" value="órgão emissor" style="text;strokeColor=none;fillColor=none;align=left;verticalAlign=top;spacingLeft=4;spacingRight=4;overflow=hidden;rotatable=0;points=[[0,0.5],[1,0.5]];portConstraint=eastwest;whiteSpace=wrap;html=1;" parent="wrKVuI8NlJ4pwbdhKwaR-1" vertex="1">
          <mxGeometry y="104" width="140" height="26" as="geometry" />
        </mxCell>
        <mxCell id="wrKVuI8NlJ4pwbdhKwaR-11" value="documento" style="shape=folder;fontStyle=1;spacingTop=10;tabWidth=40;tabHeight=14;tabPosition=left;html=1;whiteSpace=wrap;" parent="1" vertex="1">
          <mxGeometry x="10" y="160" width="70" height="50" as="geometry" />
        </mxCell>
        <mxCell id="wrKVuI8NlJ4pwbdhKwaR-19" value="&lt;b&gt;DocumentoCPF&lt;/b&gt;" style="swimlane;fontStyle=0;childLayout=stackLayout;horizontal=1;startSize=26;fillColor=none;horizontalStack=0;resizeParent=1;resizeParentMax=0;resizeLast=0;collapsible=1;marginBottom=0;whiteSpace=wrap;html=1;" parent="1" vertex="1">
          <mxGeometry x="440" y="160" width="140" height="52" as="geometry" />
        </mxCell>
        <mxCell id="wrKVuI8NlJ4pwbdhKwaR-20" value="número de identificação" style="text;strokeColor=none;fillColor=none;align=left;verticalAlign=top;spacingLeft=4;spacingRight=4;overflow=hidden;rotatable=0;points=[[0,0.5],[1,0.5]];portConstraint=eastwest;whiteSpace=wrap;html=1;" parent="wrKVuI8NlJ4pwbdhKwaR-19" vertex="1">
          <mxGeometry y="26" width="140" height="26" as="geometry" />
        </mxCell>
        <mxCell id="wrKVuI8NlJ4pwbdhKwaR-30" value="&lt;b&gt;Reservista&lt;/b&gt;" style="swimlane;fontStyle=0;childLayout=stackLayout;horizontal=1;startSize=26;fillColor=none;horizontalStack=0;resizeParent=1;resizeParentMax=0;resizeLast=0;collapsible=1;marginBottom=0;whiteSpace=wrap;html=1;" parent="1" vertex="1">
          <mxGeometry x="440" y="390" width="140" height="104" as="geometry" />
        </mxCell>
        <mxCell id="wrKVuI8NlJ4pwbdhKwaR-31" value="número de identificação" style="text;strokeColor=none;fillColor=none;align=left;verticalAlign=top;spacingLeft=4;spacingRight=4;overflow=hidden;rotatable=0;points=[[0,0.5],[1,0.5]];portConstraint=eastwest;whiteSpace=wrap;html=1;" parent="wrKVuI8NlJ4pwbdhKwaR-30" vertex="1">
          <mxGeometry y="26" width="140" height="26" as="geometry" />
        </mxCell>
        <mxCell id="wrKVuI8NlJ4pwbdhKwaR-32" value="série" style="text;strokeColor=none;fillColor=none;align=left;verticalAlign=top;spacingLeft=4;spacingRight=4;overflow=hidden;rotatable=0;points=[[0,0.5],[1,0.5]];portConstraint=eastwest;whiteSpace=wrap;html=1;" parent="wrKVuI8NlJ4pwbdhKwaR-30" vertex="1">
          <mxGeometry y="52" width="140" height="26" as="geometry" />
        </mxCell>
        <mxCell id="wrKVuI8NlJ4pwbdhKwaR-33" value="ra" style="text;strokeColor=none;fillColor=none;align=left;verticalAlign=top;spacingLeft=4;spacingRight=4;overflow=hidden;rotatable=0;points=[[0,0.5],[1,0.5]];portConstraint=eastwest;whiteSpace=wrap;html=1;" parent="wrKVuI8NlJ4pwbdhKwaR-30" vertex="1">
          <mxGeometry y="78" width="140" height="26" as="geometry" />
        </mxCell>
        <mxCell id="wrKVuI8NlJ4pwbdhKwaR-34" value="&lt;b&gt;Passaporte&lt;/b&gt;" style="swimlane;fontStyle=0;childLayout=stackLayout;horizontal=1;startSize=26;fillColor=none;horizontalStack=0;resizeParent=1;resizeParentMax=0;resizeLast=0;collapsible=1;marginBottom=0;whiteSpace=wrap;html=1;" parent="1" vertex="1">
          <mxGeometry x="440" y="530" width="150" height="156" as="geometry" />
        </mxCell>
        <mxCell id="wrKVuI8NlJ4pwbdhKwaR-35" value="número de identificação" style="text;strokeColor=none;fillColor=none;align=left;verticalAlign=top;spacingLeft=4;spacingRight=4;overflow=hidden;rotatable=0;points=[[0,0.5],[1,0.5]];portConstraint=eastwest;whiteSpace=wrap;html=1;" parent="wrKVuI8NlJ4pwbdhKwaR-34" vertex="1">
          <mxGeometry y="26" width="150" height="26" as="geometry" />
        </mxCell>
        <mxCell id="wrKVuI8NlJ4pwbdhKwaR-53" value="data de emissão" style="text;strokeColor=none;fillColor=none;align=left;verticalAlign=top;spacingLeft=4;spacingRight=4;overflow=hidden;rotatable=0;points=[[0,0.5],[1,0.5]];portConstraint=eastwest;whiteSpace=wrap;html=1;" parent="wrKVuI8NlJ4pwbdhKwaR-34" vertex="1">
          <mxGeometry y="52" width="150" height="26" as="geometry" />
        </mxCell>
        <mxCell id="wrKVuI8NlJ4pwbdhKwaR-36" value="data de expiração" style="text;strokeColor=none;fillColor=none;align=left;verticalAlign=top;spacingLeft=4;spacingRight=4;overflow=hidden;rotatable=0;points=[[0,0.5],[1,0.5]];portConstraint=eastwest;whiteSpace=wrap;html=1;" parent="wrKVuI8NlJ4pwbdhKwaR-34" vertex="1">
          <mxGeometry y="78" width="150" height="26" as="geometry" />
        </mxCell>
        <mxCell id="wrKVuI8NlJ4pwbdhKwaR-37" value="Informações de emissão" style="text;strokeColor=none;fillColor=none;align=left;verticalAlign=top;spacingLeft=4;spacingRight=4;overflow=hidden;rotatable=0;points=[[0,0.5],[1,0.5]];portConstraint=eastwest;whiteSpace=wrap;html=1;" parent="wrKVuI8NlJ4pwbdhKwaR-34" vertex="1">
          <mxGeometry y="104" width="150" height="26" as="geometry" />
        </mxCell>
        <mxCell id="wrKVuI8NlJ4pwbdhKwaR-54" value="Observações " style="text;strokeColor=none;fillColor=none;align=left;verticalAlign=top;spacingLeft=4;spacingRight=4;overflow=hidden;rotatable=0;points=[[0,0.5],[1,0.5]];portConstraint=eastwest;whiteSpace=wrap;html=1;" parent="wrKVuI8NlJ4pwbdhKwaR-34" vertex="1">
          <mxGeometry y="130" width="150" height="26" as="geometry" />
        </mxCell>
        <mxCell id="wrKVuI8NlJ4pwbdhKwaR-38" value="&lt;b&gt;TituloEleitoral&lt;/b&gt;" style="swimlane;fontStyle=0;childLayout=stackLayout;horizontal=1;startSize=26;fillColor=none;horizontalStack=0;resizeParent=1;resizeParentMax=0;resizeLast=0;collapsible=1;marginBottom=0;whiteSpace=wrap;html=1;" parent="1" vertex="1">
          <mxGeometry x="440" y="725" width="140" height="130" as="geometry" />
        </mxCell>
        <mxCell id="wrKVuI8NlJ4pwbdhKwaR-39" value="número de identificação" style="text;strokeColor=none;fillColor=none;align=left;verticalAlign=top;spacingLeft=4;spacingRight=4;overflow=hidden;rotatable=0;points=[[0,0.5],[1,0.5]];portConstraint=eastwest;whiteSpace=wrap;html=1;" parent="wrKVuI8NlJ4pwbdhKwaR-38" vertex="1">
          <mxGeometry y="26" width="140" height="26" as="geometry" />
        </mxCell>
        <mxCell id="wrKVuI8NlJ4pwbdhKwaR-40" value="zona" style="text;strokeColor=none;fillColor=none;align=left;verticalAlign=top;spacingLeft=4;spacingRight=4;overflow=hidden;rotatable=0;points=[[0,0.5],[1,0.5]];portConstraint=eastwest;whiteSpace=wrap;html=1;" parent="wrKVuI8NlJ4pwbdhKwaR-38" vertex="1">
          <mxGeometry y="52" width="140" height="26" as="geometry" />
        </mxCell>
        <mxCell id="wrKVuI8NlJ4pwbdhKwaR-41" value="seção" style="text;strokeColor=none;fillColor=none;align=left;verticalAlign=top;spacingLeft=4;spacingRight=4;overflow=hidden;rotatable=0;points=[[0,0.5],[1,0.5]];portConstraint=eastwest;whiteSpace=wrap;html=1;" parent="wrKVuI8NlJ4pwbdhKwaR-38" vertex="1">
          <mxGeometry y="78" width="140" height="26" as="geometry" />
        </mxCell>
        <mxCell id="wrKVuI8NlJ4pwbdhKwaR-56" value="data de emissão" style="text;strokeColor=none;fillColor=none;align=left;verticalAlign=top;spacingLeft=4;spacingRight=4;overflow=hidden;rotatable=0;points=[[0,0.5],[1,0.5]];portConstraint=eastwest;whiteSpace=wrap;html=1;" parent="wrKVuI8NlJ4pwbdhKwaR-38" vertex="1">
          <mxGeometry y="104" width="140" height="26" as="geometry" />
        </mxCell>
        <mxCell id="wrKVuI8NlJ4pwbdhKwaR-46" value="&lt;b&gt;CertidaoDeNascimento&lt;/b&gt;" style="swimlane;fontStyle=0;childLayout=stackLayout;horizontal=1;startSize=26;fillColor=none;horizontalStack=0;resizeParent=1;resizeParentMax=0;resizeLast=0;collapsible=1;marginBottom=0;whiteSpace=wrap;html=1;" parent="1" vertex="1">
          <mxGeometry x="440" y="250" width="140" height="104" as="geometry" />
        </mxCell>
        <mxCell id="wrKVuI8NlJ4pwbdhKwaR-47" value="livro" style="text;strokeColor=none;fillColor=none;align=left;verticalAlign=top;spacingLeft=4;spacingRight=4;overflow=hidden;rotatable=0;points=[[0,0.5],[1,0.5]];portConstraint=eastwest;whiteSpace=wrap;html=1;" parent="wrKVuI8NlJ4pwbdhKwaR-46" vertex="1">
          <mxGeometry y="26" width="140" height="26" as="geometry" />
        </mxCell>
        <mxCell id="wrKVuI8NlJ4pwbdhKwaR-48" value="folha" style="text;strokeColor=none;fillColor=none;align=left;verticalAlign=top;spacingLeft=4;spacingRight=4;overflow=hidden;rotatable=0;points=[[0,0.5],[1,0.5]];portConstraint=eastwest;whiteSpace=wrap;html=1;" parent="wrKVuI8NlJ4pwbdhKwaR-46" vertex="1">
          <mxGeometry y="52" width="140" height="26" as="geometry" />
        </mxCell>
        <mxCell id="wrKVuI8NlJ4pwbdhKwaR-49" value="termo" style="text;strokeColor=none;fillColor=none;align=left;verticalAlign=top;spacingLeft=4;spacingRight=4;overflow=hidden;rotatable=0;points=[[0,0.5],[1,0.5]];portConstraint=eastwest;whiteSpace=wrap;html=1;" parent="wrKVuI8NlJ4pwbdhKwaR-46" vertex="1">
          <mxGeometry y="78" width="140" height="26" as="geometry" />
        </mxCell>
        <mxCell id="BQi04ev3RmSJB8WKI6rc-11" style="edgeStyle=orthogonalEdgeStyle;rounded=0;orthogonalLoop=1;jettySize=auto;html=1;" edge="1" parent="1" source="BQi04ev3RmSJB8WKI6rc-1" target="BQi04ev3RmSJB8WKI6rc-5">
          <mxGeometry relative="1" as="geometry" />
        </mxCell>
        <mxCell id="q-tjLKZ_oxUmybZRjb-6-5" style="edgeStyle=orthogonalEdgeStyle;rounded=0;orthogonalLoop=1;jettySize=auto;html=1;entryX=0;entryY=0.25;entryDx=0;entryDy=0;" edge="1" parent="1" source="BQi04ev3RmSJB8WKI6rc-1" target="wrKVuI8NlJ4pwbdhKwaR-19">
          <mxGeometry relative="1" as="geometry">
            <Array as="points">
              <mxPoint x="260" y="185" />
              <mxPoint x="260" y="80" />
              <mxPoint x="400" y="80" />
              <mxPoint x="400" y="173" />
            </Array>
          </mxGeometry>
        </mxCell>
        <mxCell id="BQi04ev3RmSJB8WKI6rc-1" value="rg" style="shape=folder;fontStyle=1;spacingTop=10;tabWidth=40;tabHeight=14;tabPosition=left;html=1;whiteSpace=wrap;" vertex="1" parent="1">
          <mxGeometry x="160" y="160" width="70" height="50" as="geometry" />
        </mxCell>
        <mxCell id="BQi04ev3RmSJB8WKI6rc-2" value="reservista" style="shape=folder;fontStyle=1;spacingTop=10;tabWidth=40;tabHeight=14;tabPosition=left;html=1;whiteSpace=wrap;" vertex="1" parent="1">
          <mxGeometry x="160" y="240" width="70" height="50" as="geometry" />
        </mxCell>
        <mxCell id="BQi04ev3RmSJB8WKI6rc-3" value="passaporte" style="shape=folder;fontStyle=1;spacingTop=10;tabWidth=40;tabHeight=14;tabPosition=left;html=1;whiteSpace=wrap;" vertex="1" parent="1">
          <mxGeometry x="160" y="320" width="70" height="50" as="geometry" />
        </mxCell>
        <mxCell id="BQi04ev3RmSJB8WKI6rc-4" value="tituloEleit" style="shape=folder;fontStyle=1;spacingTop=10;tabWidth=40;tabHeight=14;tabPosition=left;html=1;whiteSpace=wrap;" vertex="1" parent="1">
          <mxGeometry x="160" y="400" width="70" height="50" as="geometry" />
        </mxCell>
        <mxCell id="BQi04ev3RmSJB8WKI6rc-5" value="certidaoNas" style="shape=folder;fontStyle=1;spacingTop=10;tabWidth=40;tabHeight=14;tabPosition=left;html=1;whiteSpace=wrap;" vertex="1" parent="1">
          <mxGeometry x="310" y="160" width="70" height="50" as="geometry" />
        </mxCell>
        <mxCell id="BQi04ev3RmSJB8WKI6rc-13" style="edgeStyle=orthogonalEdgeStyle;rounded=0;orthogonalLoop=1;jettySize=auto;html=1;entryX=0;entryY=0;entryDx=0;entryDy=23;entryPerimeter=0;" edge="1" parent="1" source="wrKVuI8NlJ4pwbdhKwaR-11" target="BQi04ev3RmSJB8WKI6rc-1">
          <mxGeometry relative="1" as="geometry">
            <mxPoint x="100" y="240" as="targetPoint" />
          </mxGeometry>
        </mxCell>
        <mxCell id="BQi04ev3RmSJB8WKI6rc-16" style="edgeStyle=orthogonalEdgeStyle;rounded=0;orthogonalLoop=1;jettySize=auto;html=1;entryX=-0.01;entryY=0.163;entryDx=0;entryDy=0;entryPerimeter=0;" edge="1" parent="1" source="BQi04ev3RmSJB8WKI6rc-5" target="wrKVuI8NlJ4pwbdhKwaR-46">
          <mxGeometry relative="1" as="geometry">
            <Array as="points">
              <mxPoint x="400" y="185" />
              <mxPoint x="400" y="267" />
            </Array>
          </mxGeometry>
        </mxCell>
        <mxCell id="BQi04ev3RmSJB8WKI6rc-17" style="edgeStyle=orthogonalEdgeStyle;rounded=0;orthogonalLoop=1;jettySize=auto;html=1;entryX=-0.004;entryY=0.163;entryDx=0;entryDy=0;entryPerimeter=0;" edge="1" parent="1" source="BQi04ev3RmSJB8WKI6rc-2" target="wrKVuI8NlJ4pwbdhKwaR-30">
          <mxGeometry relative="1" as="geometry">
            <Array as="points">
              <mxPoint x="360" y="265" />
              <mxPoint x="360" y="407" />
            </Array>
          </mxGeometry>
        </mxCell>
        <mxCell id="BQi04ev3RmSJB8WKI6rc-18" style="edgeStyle=orthogonalEdgeStyle;rounded=0;orthogonalLoop=1;jettySize=auto;html=1;entryX=-0.014;entryY=0.12;entryDx=0;entryDy=0;entryPerimeter=0;" edge="1" parent="1" source="BQi04ev3RmSJB8WKI6rc-3" target="wrKVuI8NlJ4pwbdhKwaR-34">
          <mxGeometry relative="1" as="geometry">
            <Array as="points">
              <mxPoint x="320" y="345" />
              <mxPoint x="320" y="549" />
            </Array>
          </mxGeometry>
        </mxCell>
        <mxCell id="BQi04ev3RmSJB8WKI6rc-19" style="edgeStyle=orthogonalEdgeStyle;rounded=0;orthogonalLoop=1;jettySize=auto;html=1;entryX=-0.015;entryY=0.15;entryDx=0;entryDy=0;entryPerimeter=0;" edge="1" parent="1" source="BQi04ev3RmSJB8WKI6rc-4" target="wrKVuI8NlJ4pwbdhKwaR-38">
          <mxGeometry relative="1" as="geometry">
            <Array as="points">
              <mxPoint x="280" y="425" />
              <mxPoint x="280" y="745" />
            </Array>
          </mxGeometry>
        </mxCell>
        <mxCell id="cXqmmsu3CSd-sL9rEnfx-1" value="pessoa" style="shape=folder;fontStyle=1;spacingTop=10;tabWidth=40;tabHeight=14;tabPosition=left;html=1;whiteSpace=wrap;" vertex="1" parent="1">
          <mxGeometry x="10" y="280" width="70" height="50" as="geometry" />
        </mxCell>
        <mxCell id="cXqmmsu3CSd-sL9rEnfx-2" style="edgeStyle=orthogonalEdgeStyle;rounded=0;orthogonalLoop=1;jettySize=auto;html=1;entryX=0.5;entryY=1;entryDx=0;entryDy=0;entryPerimeter=0;" edge="1" parent="1" source="cXqmmsu3CSd-sL9rEnfx-1" target="wrKVuI8NlJ4pwbdhKwaR-11">
          <mxGeometry relative="1" as="geometry" />
        </mxCell>
        <mxCell id="q-tjLKZ_oxUmybZRjb-6-1" style="edgeStyle=orthogonalEdgeStyle;rounded=0;orthogonalLoop=1;jettySize=auto;html=1;entryX=0;entryY=0;entryDx=0;entryDy=32;entryPerimeter=0;" edge="1" parent="1" source="wrKVuI8NlJ4pwbdhKwaR-11" target="BQi04ev3RmSJB8WKI6rc-2">
          <mxGeometry relative="1" as="geometry" />
        </mxCell>
        <mxCell id="q-tjLKZ_oxUmybZRjb-6-2" style="edgeStyle=orthogonalEdgeStyle;rounded=0;orthogonalLoop=1;jettySize=auto;html=1;entryX=0;entryY=0;entryDx=0;entryDy=32;entryPerimeter=0;" edge="1" parent="1" source="wrKVuI8NlJ4pwbdhKwaR-11" target="BQi04ev3RmSJB8WKI6rc-3">
          <mxGeometry relative="1" as="geometry" />
        </mxCell>
        <mxCell id="q-tjLKZ_oxUmybZRjb-6-3" style="edgeStyle=orthogonalEdgeStyle;rounded=0;orthogonalLoop=1;jettySize=auto;html=1;entryX=0;entryY=0;entryDx=0;entryDy=32;entryPerimeter=0;" edge="1" parent="1" source="wrKVuI8NlJ4pwbdhKwaR-11" target="BQi04ev3RmSJB8WKI6rc-4">
          <mxGeometry relative="1" as="geometry" />
        </mxCell>
        <mxCell id="q-tjLKZ_oxUmybZRjb-6-4" style="edgeStyle=orthogonalEdgeStyle;rounded=0;orthogonalLoop=1;jettySize=auto;html=1;entryX=0;entryY=0.092;entryDx=0;entryDy=0;entryPerimeter=0;" edge="1" parent="1" source="BQi04ev3RmSJB8WKI6rc-1" target="wrKVuI8NlJ4pwbdhKwaR-1">
          <mxGeometry relative="1" as="geometry">
            <Array as="points">
              <mxPoint x="260" y="185" />
              <mxPoint x="260" y="32" />
            </Array>
          </mxGeometry>
        </mxCell>
      </root>
    </mxGraphModel>
  </diagram>
  <diagram id="Zxu2rnrisYrEoOiBE443" name="Página-2">
    <mxGraphModel dx="1120" dy="532" grid="1" gridSize="10" guides="1" tooltips="1" connect="1" arrows="1" fold="1" page="1" pageScale="1" pageWidth="827" pageHeight="1169" math="0" shadow="0">
      <root>
        <mxCell id="0" />
        <mxCell id="1" parent="0" />
        <mxCell id="gc7gGqLxTCY2lEdDZfuR-1" value="endereco" style="shape=folder;fontStyle=1;spacingTop=10;tabWidth=40;tabHeight=14;tabPosition=left;html=1;whiteSpace=wrap;" parent="1" vertex="1">
          <mxGeometry x="40" y="80" width="70" height="50" as="geometry" />
        </mxCell>
        <mxCell id="G9b1EiaHJi-2zmkg74Qs-1" value="&lt;b&gt;Endereco&lt;/b&gt;" style="swimlane;fontStyle=0;childLayout=stackLayout;horizontal=1;startSize=26;fillColor=none;horizontalStack=0;resizeParent=1;resizeParentMax=0;resizeLast=0;collapsible=1;marginBottom=0;whiteSpace=wrap;html=1;" parent="1" vertex="1">
          <mxGeometry x="200" y="40" width="140" height="208" as="geometry" />
        </mxCell>
        <mxCell id="G9b1EiaHJi-2zmkg74Qs-2" value="estado" style="text;strokeColor=none;fillColor=none;align=left;verticalAlign=top;spacingLeft=4;spacingRight=4;overflow=hidden;rotatable=0;points=[[0,0.5],[1,0.5]];portConstraint=eastwest;whiteSpace=wrap;html=1;" parent="G9b1EiaHJi-2zmkg74Qs-1" vertex="1">
          <mxGeometry y="26" width="140" height="26" as="geometry" />
        </mxCell>
        <mxCell id="G9b1EiaHJi-2zmkg74Qs-3" value="cidade" style="text;strokeColor=none;fillColor=none;align=left;verticalAlign=top;spacingLeft=4;spacingRight=4;overflow=hidden;rotatable=0;points=[[0,0.5],[1,0.5]];portConstraint=eastwest;whiteSpace=wrap;html=1;" parent="G9b1EiaHJi-2zmkg74Qs-1" vertex="1">
          <mxGeometry y="52" width="140" height="26" as="geometry" />
        </mxCell>
        <mxCell id="G9b1EiaHJi-2zmkg74Qs-4" value="cep" style="text;strokeColor=none;fillColor=none;align=left;verticalAlign=top;spacingLeft=4;spacingRight=4;overflow=hidden;rotatable=0;points=[[0,0.5],[1,0.5]];portConstraint=eastwest;whiteSpace=wrap;html=1;" parent="G9b1EiaHJi-2zmkg74Qs-1" vertex="1">
          <mxGeometry y="78" width="140" height="26" as="geometry" />
        </mxCell>
        <mxCell id="G9b1EiaHJi-2zmkg74Qs-5" value="rua" style="text;strokeColor=none;fillColor=none;align=left;verticalAlign=top;spacingLeft=4;spacingRight=4;overflow=hidden;rotatable=0;points=[[0,0.5],[1,0.5]];portConstraint=eastwest;whiteSpace=wrap;html=1;" parent="G9b1EiaHJi-2zmkg74Qs-1" vertex="1">
          <mxGeometry y="104" width="140" height="26" as="geometry" />
        </mxCell>
        <mxCell id="G9b1EiaHJi-2zmkg74Qs-6" value="numero" style="text;strokeColor=none;fillColor=none;align=left;verticalAlign=top;spacingLeft=4;spacingRight=4;overflow=hidden;rotatable=0;points=[[0,0.5],[1,0.5]];portConstraint=eastwest;whiteSpace=wrap;html=1;" parent="G9b1EiaHJi-2zmkg74Qs-1" vertex="1">
          <mxGeometry y="130" width="140" height="26" as="geometry" />
        </mxCell>
        <mxCell id="G9b1EiaHJi-2zmkg74Qs-7" value="complemento" style="text;strokeColor=none;fillColor=none;align=left;verticalAlign=top;spacingLeft=4;spacingRight=4;overflow=hidden;rotatable=0;points=[[0,0.5],[1,0.5]];portConstraint=eastwest;whiteSpace=wrap;html=1;" parent="G9b1EiaHJi-2zmkg74Qs-1" vertex="1">
          <mxGeometry y="156" width="140" height="26" as="geometry" />
        </mxCell>
        <mxCell id="G9b1EiaHJi-2zmkg74Qs-8" value="observacao" style="text;strokeColor=none;fillColor=none;align=left;verticalAlign=top;spacingLeft=4;spacingRight=4;overflow=hidden;rotatable=0;points=[[0,0.5],[1,0.5]];portConstraint=eastwest;whiteSpace=wrap;html=1;" parent="G9b1EiaHJi-2zmkg74Qs-1" vertex="1">
          <mxGeometry y="182" width="140" height="26" as="geometry" />
        </mxCell>
        <mxCell id="G9b1EiaHJi-2zmkg74Qs-9" style="edgeStyle=orthogonalEdgeStyle;rounded=0;orthogonalLoop=1;jettySize=auto;html=1;entryX=-0.021;entryY=0.063;entryDx=0;entryDy=0;entryPerimeter=0;" parent="1" source="gc7gGqLxTCY2lEdDZfuR-1" target="G9b1EiaHJi-2zmkg74Qs-1" edge="1">
          <mxGeometry relative="1" as="geometry" />
        </mxCell>
        <mxCell id="G9b1EiaHJi-2zmkg74Qs-10" value="pessoa" style="shape=folder;fontStyle=1;spacingTop=10;tabWidth=40;tabHeight=14;tabPosition=left;html=1;whiteSpace=wrap;" parent="1" vertex="1">
          <mxGeometry x="40" y="360" width="70" height="50" as="geometry" />
        </mxCell>
        <mxCell id="66ywNjnrlJl6cTy5TgPP-1" value="&lt;b&gt;Pessoa&lt;/b&gt;" style="swimlane;fontStyle=0;childLayout=stackLayout;horizontal=1;startSize=26;fillColor=none;horizontalStack=0;resizeParent=1;resizeParentMax=0;resizeLast=0;collapsible=1;marginBottom=0;whiteSpace=wrap;html=1;" parent="1" vertex="1">
          <mxGeometry x="200" y="320" width="140" height="260" as="geometry" />
        </mxCell>
        <mxCell id="66ywNjnrlJl6cTy5TgPP-2" value="nome completo" style="text;strokeColor=none;fillColor=none;align=left;verticalAlign=top;spacingLeft=4;spacingRight=4;overflow=hidden;rotatable=0;points=[[0,0.5],[1,0.5]];portConstraint=eastwest;whiteSpace=wrap;html=1;" parent="66ywNjnrlJl6cTy5TgPP-1" vertex="1">
          <mxGeometry y="26" width="140" height="26" as="geometry" />
        </mxCell>
        <mxCell id="66ywNjnrlJl6cTy5TgPP-3" value="data de nascimento" style="text;strokeColor=none;fillColor=none;align=left;verticalAlign=top;spacingLeft=4;spacingRight=4;overflow=hidden;rotatable=0;points=[[0,0.5],[1,0.5]];portConstraint=eastwest;whiteSpace=wrap;html=1;" parent="66ywNjnrlJl6cTy5TgPP-1" vertex="1">
          <mxGeometry y="52" width="140" height="26" as="geometry" />
        </mxCell>
        <mxCell id="66ywNjnrlJl6cTy5TgPP-4" value="naturalidade" style="text;strokeColor=none;fillColor=none;align=left;verticalAlign=top;spacingLeft=4;spacingRight=4;overflow=hidden;rotatable=0;points=[[0,0.5],[1,0.5]];portConstraint=eastwest;whiteSpace=wrap;html=1;" parent="66ywNjnrlJl6cTy5TgPP-1" vertex="1">
          <mxGeometry y="78" width="140" height="26" as="geometry" />
        </mxCell>
        <mxCell id="66ywNjnrlJl6cTy5TgPP-5" value="nacionalidade" style="text;strokeColor=none;fillColor=none;align=left;verticalAlign=top;spacingLeft=4;spacingRight=4;overflow=hidden;rotatable=0;points=[[0,0.5],[1,0.5]];portConstraint=eastwest;whiteSpace=wrap;html=1;" parent="66ywNjnrlJl6cTy5TgPP-1" vertex="1">
          <mxGeometry y="104" width="140" height="26" as="geometry" />
        </mxCell>
        <mxCell id="rbcOVCISj3wYFGxa9DJ1-1" value="tipo sanguineo" style="text;strokeColor=none;fillColor=none;align=left;verticalAlign=top;spacingLeft=4;spacingRight=4;overflow=hidden;rotatable=0;points=[[0,0.5],[1,0.5]];portConstraint=eastwest;whiteSpace=wrap;html=1;" parent="66ywNjnrlJl6cTy5TgPP-1" vertex="1">
          <mxGeometry y="130" width="140" height="26" as="geometry" />
        </mxCell>
        <mxCell id="66ywNjnrlJl6cTy5TgPP-6" value="nome completo do pai" style="text;strokeColor=none;fillColor=none;align=left;verticalAlign=top;spacingLeft=4;spacingRight=4;overflow=hidden;rotatable=0;points=[[0,0.5],[1,0.5]];portConstraint=eastwest;whiteSpace=wrap;html=1;" parent="66ywNjnrlJl6cTy5TgPP-1" vertex="1">
          <mxGeometry y="156" width="140" height="26" as="geometry" />
        </mxCell>
        <mxCell id="66ywNjnrlJl6cTy5TgPP-8" value="nacionalidade do pai" style="text;strokeColor=none;fillColor=none;align=left;verticalAlign=top;spacingLeft=4;spacingRight=4;overflow=hidden;rotatable=0;points=[[0,0.5],[1,0.5]];portConstraint=eastwest;whiteSpace=wrap;html=1;" parent="66ywNjnrlJl6cTy5TgPP-1" vertex="1">
          <mxGeometry y="182" width="140" height="26" as="geometry" />
        </mxCell>
        <mxCell id="66ywNjnrlJl6cTy5TgPP-7" value="nome completo da mãe" style="text;strokeColor=none;fillColor=none;align=left;verticalAlign=top;spacingLeft=4;spacingRight=4;overflow=hidden;rotatable=0;points=[[0,0.5],[1,0.5]];portConstraint=eastwest;whiteSpace=wrap;html=1;" parent="66ywNjnrlJl6cTy5TgPP-1" vertex="1">
          <mxGeometry y="208" width="140" height="26" as="geometry" />
        </mxCell>
        <mxCell id="66ywNjnrlJl6cTy5TgPP-9" value="nacionalidade da mãe" style="text;strokeColor=none;fillColor=none;align=left;verticalAlign=top;spacingLeft=4;spacingRight=4;overflow=hidden;rotatable=0;points=[[0,0.5],[1,0.5]];portConstraint=eastwest;whiteSpace=wrap;html=1;" parent="66ywNjnrlJl6cTy5TgPP-1" vertex="1">
          <mxGeometry y="234" width="140" height="26" as="geometry" />
        </mxCell>
        <mxCell id="rbcOVCISj3wYFGxa9DJ1-2" style="edgeStyle=orthogonalEdgeStyle;rounded=0;orthogonalLoop=1;jettySize=auto;html=1;entryX=-0.021;entryY=0.05;entryDx=0;entryDy=0;entryPerimeter=0;" parent="1" source="G9b1EiaHJi-2zmkg74Qs-10" target="66ywNjnrlJl6cTy5TgPP-1" edge="1">
          <mxGeometry relative="1" as="geometry" />
        </mxCell>
      </root>
    </mxGraphModel>
  </diagram>
</mxfile>
